<?xml version="1.0" encoding="UTF-8"?>
<svg width="512px" height="512px" viewBox="0 0 512 512" version="1.1" xmlns="http://www.w3.org/2000/svg" xmlns:xlink="http://www.w3.org/1999/xlink">
    <!-- Generator: Sketch 52.2 (67145) - http://www.bohemiancoding.com/sketch -->
    <title>digest-icon</title>
    <desc>Created with Sketch.</desc>
    <g id="digest-icon" stroke="none" stroke-width="1" fill="none" fill-rule="evenodd">
        <rect id="bg" fill="#CB1B14" fill-rule="nonzero" x="0" y="0" width="512" height="512"></rect>
        <path d="M334.22196,299.524035 L308,322 L379.076923,382.923077 L369.384615,392.615385 L297.434682,330.944013 L234.753754,331.217504 L234.5,331 L162.615385,392.615385 L152.923077,382.923077 L224,322 L197.77804,299.524035 L152,260.800293 L152,194.32 L116,226 L116,394.071276 C116,407.286746 126.677159,418 140.043138,418 L391.956861,418 C405.23552,418 416,407.265834 416,394.071276 L416,226 L380,194.32 L380,260.800293 L334.22196,299.524035 Z M225.090909,130 L266,94 L306.909091,130 L225.090909,130 Z M175.999522,142 L356.000478,142 C362.543493,142 368,147.383736 368,154.024912 L368,252.400146 L292.063232,316.191162 L239.026368,316.191162 L164,252.400146 L164,154.024912 C164,147.324829 169.372369,142 175.999522,142 Z M265.971799,164.330194 L249.339337,198.025217 L212.150495,203.430915 L239.061147,229.661067 L232.709821,266.699668 L265.971799,249.209954 L299.233776,266.699668 L292.88245,229.661067 L319.793102,203.430915 L282.60426,198.025217 L265.971799,164.330194 Z" id="mail-envelope-with-star" fill="#FFFFFF" fill-rule="nonzero"></path>
    </g>
</svg>