<svg width="512" height="512" viewBox="0 0 512 512" xmlns="http://www.w3.org/2000/svg"><g fill="none" fill-rule="nonzero"><path fill="#CB1B14" d="M0 0h512v512H0z"/><path d="M334.222 299.524L308 322l71.077 60.923-9.692 9.692-71.95-61.671-62.681.274-.254-.218-71.885 61.615-9.692-9.692L224 322l-26.222-22.476L152 260.8v-66.48L116 226v168.071C116 407.287 126.677 418 140.043 418h251.914C405.236 418 416 407.266 416 394.071V226l-36-31.68v66.48l-45.778 38.724zM225.091 130L266 94l40.91 36h-81.82zM176 142h180c6.543 0 12 5.384 12 12.025V252.4l-75.937 63.791h-53.037L164 252.401v-98.376c0-6.7 5.372-12.025 12-12.025zm89.972 22.33l-16.633 33.695-37.189 5.406 26.911 26.23-6.351 37.039 33.262-17.49 33.262 17.49-6.352-37.039 26.911-26.23-37.189-5.406-16.632-33.695z" fill="#FFF"/></g></svg>
