<?xml version="1.0" encoding="utf-8"?>
<!-- Generator: Adobe Illustrator 18.1.1, SVG Export Plug-In . SVG Version: 6.00 Build 0)  -->
<!DOCTYPE svg PUBLIC "-//W3C//DTD SVG 1.1//EN" "http://www.w3.org/Graphics/SVG/1.1/DTD/svg11.dtd">
<svg version="1.1" id="Layer_1" xmlns="http://www.w3.org/2000/svg" xmlns:xlink="http://www.w3.org/1999/xlink" x="0px" y="0px"
	 viewBox="6 186 600 600" enable-background="new 6 186 600 600" xml:space="preserve">
<path display="none" fill="#FFFFFF" d="M252.1,406.1l-0.6-3.8c-0.8-7.3-1-14.5-0.6-21.6c0.4-7.5,2.1-14.4,5-20.8
	c2.9-6.7,6.4-12.4,10.4-17.2c4.4-5.2,9.9-9.2,16.6-12c6.9-3.1,14.4-4.6,22.6-4.6c13.7,0,25.1,3.9,34.2,11.8
	c9.2,8,15.2,17.6,18.2,28.8c2.9,11.3,3.5,23.2,1.8,35.6l-0.6,3.8c-0.1,1.3-0.9,4.5-2.2,9.6c-0.9,4.4-2.3,9-4,13.8
	c-1.7,4.5-4,9.3-6.8,14.4c-2.4,4.7-5.5,9.3-9.4,13.8c-3.3,3.5-7.8,6.7-13.4,9.6c-5.2,2.5-10.9,3.8-17.2,3.8
	c-6.1,0-11.9-1.3-17.4-3.8c-5.6-2.8-10.1-6.1-13.4-10c-3.3-3.7-6.6-8.1-9.8-13.2c-2.9-4.8-5.2-9.7-6.8-14.6
	c-1.9-5.2-3.3-9.7-4.2-13.4C253.3,411.7,252.5,408.4,252.1,406.1z M435.8,530.7c6.7,11.3,10,25.6,10,42.7v49.7
	c0,0.5-1.9,1.4-5.8,2.6c-0.9,0.3-3.4,1-7.4,2.1s-8,2.2-12,3.3c-14.6,3.2-25.6,5.5-33,6.8c-11.3,2-24.3,3.8-39,5.4
	c-14.9,1.6-29.1,2.4-42.5,2.4s-27.7-0.8-42.7-2.4c-12-1.1-25.2-2.9-39.6-5.4c-5.9-1.1-16.2-3.3-31.2-6.8c-5.7-1.3-12.8-3.3-21.2-5.8
	l-5.4-2.2v-49.7c0-17.8,3.1-32.2,9.2-42.9c8.7-15.3,18.6-26.5,30-33.6c6.3-3.9,15.3-6.7,27.2-8.4s23-2.6,33.6-2.6l33.4,33.4
	L286,545.9v59.9l20.4,21.6l19.6-21.6v-59.9l-13.6-26.6l33-33.4c27.8,0,47.1,3.5,57.9,10.4C416.1,504.5,426.9,516,435.8,530.7z"/>
<rect x="0.3" y="180" fill="#E41B13" width="612" height="612"/>
<g>
	<path fill="#FFFFFF" d="M442.7,418.3c7.3,25.9,7.2,50.8-0.3,74.7c-3.4,10.7-8.5,19.6-15.3,26.8c-6.7,7.2-14.4,12-23.1,14.6
		c-1.8,0.7-4,1-6.7,1c-0.7,0.2-1.7,0.3-3,0.3c-0.7,0.2-1.9,0.3-3.7,0.3H277.3l37,91.7c0.3,2-0.4,3.9-2.3,5.7
		c-1.4,1.8-3.3,2.7-5.7,2.7H256c-2.3,0-4.2-0.9-5.7-2.7c-1.9-1.9-2.7-3.8-2.3-5.7L231.3,536H211l-0.3-0.3c-4.1,0.4-8.4-0.3-13-2.1
		c-4.6-1.8-8.8-4.6-12.7-8.3c-9-8.7-14.9-19.1-17.7-31.3c-3.7-12.2-3.8-24.5-0.3-36.7c3-10.4,8.9-17.7,17.7-21.7l0.3-0.3l150-90
		c2.2-1.3,3.6-2.2,4-2.7c1-0.7,2.3-1.3,4-2c2.1-1.1,4.9-2.1,8.3-3c8.6-2.4,17.6-2.2,27,0.8c9.4,2.9,18.3,8.1,26.7,15.6
		c8.4,7.6,16,16.9,22.6,28C434.2,393.1,439.3,405.2,442.7,418.3z M399.7,518h-0.3c6.4-1.6,12.2-5.4,17.3-11.7
		c9.6-11.6,14.3-28.5,14.3-50.7c0-10.2-1.6-21.2-4.7-33c-5.6-22.1-15.4-40.1-29.7-54c-6.4-6.2-13.3-10.7-20.5-13.3
		c-7.2-2.7-14.1-3.1-20.5-1.3c-13.6,3.7-23,14.8-28.3,33.3c-5.3,17.3-5,38,1,62c6.6,23.6,16.6,41.6,30,54
		C372.4,516.6,386.1,521.5,399.7,518z M357.4,400c3.3-0.7,6.8-0.4,10.3,0.7c7.3,3.1,13,8.7,17,16.7c4.7,9.3,7,19.2,7,29.7
		c0,4.9-0.7,9.3-2,13.3c-3.3,9-8.1,14.2-14.3,15.7c-2.9,0.9-6.1,0.7-9.6-0.6c-3.5-1.3-6.6-3.3-9.4-6.1c-6.4-6.4-10.8-14.8-13-25
		c-2.7-9.2-2.6-18.8,0.3-28.7c1.1-3.9,2.9-7.3,5.5-10.1C351.7,402.7,354.5,400.9,357.4,400z"/>
</g>
</svg>
