<svg xmlns="http://www.w3.org/2000/svg" width="512" height="512"><g id="digest-icon" fill="none" fill-rule="evenodd"><path id="bg" fill="#CB1B14" fill-rule="nonzero" d="M0 0h512v512H0z"/><g id="notification-mail" transform="translate(106 118)"><path id="mail-envelope" fill="#FFF" fill-rule="nonzero" d="M218.22196 157.524035L264 118.800293V52.32L300 84v168.071276C300 265.265834 289.23552 276 275.956861 276H24.0431383C10.6771589 276 0 265.286746 0 252.071276V84l36-31.68v66.480293l45.7780404 38.723742L108 180l-71.076923 60.923077 9.6923076 9.692308L118.5 189l.253754.217504 62.680928-.273491 71.949933 61.671372 9.692308-9.692308L192 180l26.22196-22.475965zM59.9995224 0H240.000478C246.543493 0 252 5.38373628 252 12.0249115v98.3752345l-75.936768 63.791016h-53.036864L48 110.400146V12.0249115C48 5.32482852 53.3723692 0 59.9995224 0z"/><g id="notification-bell" transform="translate(99 25)"><g id="bell" fill="#CB1B14"><path id="Shape" fill-rule="nonzero" d="M100.784901 87.6119244C89.0180286 75.8767686 88.8065844 74.7455418 88.8065844 62.3760533V50.7466196c-.0157783-16.2142619-10.3022918-30.6382963-25.627043-35.93495a11.79857627 11.79857627 0 0 0 .2537331-2.1250147C63.4332745 5.68000888 57.7532657 0 50.7466196 0c-7.006646 0-12.6866549 5.68000888-12.6866549 12.6866549a11.79859426 11.79859426 0 0 0 .2537331 2.1250147c-15.3247511 5.2966537-25.6112646 19.7206881-25.6270429 35.93495v11.6294337c0 12.3694885 0 13.5007153-11.76687242 25.2358711-.89994233.9120458-1.16272155 2.2759951-.66604938 3.4571134.48654463 1.1843802 1.637524 1.9600402 2.91793063 1.9664315H98.3215755c1.2804067-.0063913 2.4313865-.7820513 2.9179305-1.9664315.496672-1.1811183.233893-2.5450676-.666049-3.4571134h.211444z"/><path id="Path" d="M50.7466196 112.065452c7.0066461 0 12.6866549-5.680009 12.6866549-12.6866552H38.0599647c0 7.0066462 5.6800089 12.6866552 12.6866549 12.6866552z"/></g><g id="notification" fill-rule="nonzero" transform="translate(59.47619 3.666667)"><circle id="Oval" cx="24.7619048" cy="24.7619048" r="24.7619048" fill="#FFF"/><circle id="Oval" cx="24.7619048" cy="24.7619048" r="18.5714286" fill="#CB1B14"/></g></g></g></g></svg>
